<?xml version="1.0" encoding="UTF-8" standalone="no"?>
<svg width="80px" height="80px" viewBox="0 0 80 80" version="1.1" xmlns="http://www.w3.org/2000/svg" xmlns:xlink="http://www.w3.org/1999/xlink">
    <!-- Generator: Sketch 40 (33762) - http://www.bohemiancoding.com/sketch -->
    <title>analytics</title>
    <desc>Created with Sketch.</desc>
    <defs>
        <path d="M31.25,32.5 L6.25,32.5 C5.5596875,32.5 5,33.0596875 5,33.75 L5,73.75 C5,74.4403125 5.5596875,75 6.25,75 L31.25,75 C31.9403125,75 32.5,74.4403125 32.5,73.75 L32.5,33.75 C32.5,33.0596875 31.9403125,32.5 31.25,32.5 L31.25,32.5 Z M30,72.5 L7.5,72.5 L7.5,35 L25.325625,35 L19.483125,48.81 C19.243125,48.774375 18.9996875,48.75 18.75,48.75 C15.993125,48.75 13.75,50.993125 13.75,53.75 C13.75,56.506875 15.993125,58.75 18.75,58.75 C21.506875,58.75 23.75,56.506875 23.75,53.75 C23.75,52.1346875 22.9765625,50.7 21.784375,49.7853125 L28.04,35 L30,35 L30,72.5 L30,72.5 Z M18.75,56.25 C17.3715625,56.25 16.25,55.1284375 16.25,53.75 C16.25,52.3715625 17.3715625,51.25 18.75,51.25 C20.1284375,51.25 21.25,52.3715625 21.25,53.75 C21.25,55.1284375 20.1284375,56.25 18.75,56.25 Z" id="path-1"></path>
    </defs>
    <g id="Page-1" stroke="none" stroke-width="1" fill="none" fill-rule="evenodd">
        <g id="analytics">
            <g id="Layer_1">
                <g id="Group">
                    <circle id="Oval" fill="#333333" cx="45" cy="52.5" r="1.25"></circle>
                    <path d="M75.9375,0 L14.0625,0 C11.8225,0 10,1.8225 10,4.0625 L10,23.75 C10,24.4403125 10.5596875,25 11.25,25 C11.9403125,25 12.5,24.4403125 12.5,23.75 L12.5,4.0625 C12.5,3.2009375 13.2009375,2.5 14.0625,2.5 L75.9375,2.5 C76.7990625,2.5 77.5,3.2009375 77.5,4.0625 L77.5,54.6875 C77.5,55.5490625 76.7990625,56.25 75.9375,56.25 L41.25,56.25 C40.5596875,56.25 40,56.8096875 40,57.5 C40,58.1903125 40.5596875,58.75 41.25,58.75 L52.5,58.75 L52.5,63.75 C52.5,65.8178125 54.1821875,67.5 56.25,67.5 L61.875,67.5 C62.564375,67.5 63.125,68.060625 63.125,68.75 L63.125,70 L41.25,70 C40.5596875,70 40,70.5596875 40,71.25 C40,71.9403125 40.5596875,72.5 41.25,72.5 L64.375,72.5 C65.0653125,72.5 65.625,71.9403125 65.625,71.25 L65.625,68.75 C65.625,66.6821875 63.9428125,65 61.875,65 L56.25,65 C55.560625,65 55,64.439375 55,63.75 L55,58.75 L75.9375,58.75 C78.1775,58.75 80,56.9275 80,54.6875 L80,4.0625 C80,1.8225 78.1775,0 75.9375,0 L75.9375,0 Z" id="Shape" fill="#333333"></path>
                    <path d="M75,47.5 L75,6.25 C75,5.5596875 74.4403125,5 73.75,5 L16.25,5 C15.5596875,5 15,5.5596875 15,6.25 L15,23.75 C15,24.4403125 15.5596875,25 16.25,25 C16.9403125,25 17.5,24.4403125 17.5,23.75 L17.5,7.5 L72.5,7.5 L72.5,46.25 L41.25,46.25 C40.5596875,46.25 40,46.8096875 40,47.5 C40,48.1903125 40.5596875,48.75 41.25,48.75 L73.75,48.75 C74.4403125,48.75 75,48.1903125 75,47.5 L75,47.5 Z" id="Shape" fill="#333333"></path>
                    <path d="M33.4375,27.5 L31.213125,27.5 L31.7671875,26.19 C32.0071875,26.225625 32.2503125,26.25 32.5,26.25 C33.679375,26.25 34.7628125,25.8371875 35.61875,25.1515625 L47.8784375,34.3465625 C47.6359375,34.93375 47.5,35.57625 47.5,36.25 C47.5,39.006875 49.743125,41.25 52.5,41.25 C55.256875,41.25 57.5,39.006875 57.5,36.25 C57.5,34.795625 56.871875,33.4884375 55.8771875,32.57375 L61.326875,22.3553125 C61.7040625,22.4465625 62.095625,22.5 62.5,22.5 C65.256875,22.5 67.5,20.256875 67.5,17.5 C67.5,14.743125 65.256875,12.5 62.5,12.5 C59.743125,12.5 57.5,14.743125 57.5,17.5 C57.5,18.954375 58.128125,20.2615625 59.1228125,21.17625 L53.673125,31.3946875 C53.2959375,31.3034375 52.904375,31.25 52.5,31.25 C51.320625,31.25 50.2371875,31.6628125 49.38125,32.3484375 L37.1215625,23.1534375 C37.3640625,22.56625 37.5,21.92375 37.5,21.25 C37.5,18.493125 35.256875,16.25 32.5,16.25 C29.743125,16.25 27.5,18.493125 27.5,21.25 C27.5,22.8653125 28.2734375,24.3 29.465625,25.2146875 L28.4984375,27.5 L4.0625,27.5 C1.8225,27.5 0,29.3225 0,31.5625 L0,75.9375 C0,78.1775 1.8225,80 4.0625,80 L33.4375,80 C35.6775,80 37.5,78.1775 37.5,75.9375 L37.5,31.5625 C37.5,29.3225 35.6775,27.5 33.4375,27.5 L33.4375,27.5 Z M62.5,15 C63.8784375,15 65,16.1215625 65,17.5 C65,18.8784375 63.8784375,20 62.5,20 C61.1215625,20 60,18.8784375 60,17.5 C60,16.1215625 61.1215625,15 62.5,15 L62.5,15 Z M52.5,33.75 C53.8784375,33.75 55,34.8715625 55,36.25 C55,37.6284375 53.8784375,38.75 52.5,38.75 C51.1215625,38.75 50,37.6284375 50,36.25 C50,34.8715625 51.1215625,33.75 52.5,33.75 L52.5,33.75 Z M32.5,18.75 C33.8784375,18.75 35,19.8715625 35,21.25 C35,22.6284375 33.8784375,23.75 32.5,23.75 C31.1215625,23.75 30,22.6284375 30,21.25 C30,19.8715625 31.1215625,18.75 32.5,18.75 L32.5,18.75 Z M35,75.9375 C35,76.7990625 34.2990625,77.5 33.4375,77.5 L4.0625,77.5 C3.2009375,77.5 2.5,76.7990625 2.5,75.9375 L2.5,31.5625 C2.5,30.7009375 3.2009375,30 4.0625,30 L33.4375,30 C34.2990625,30 35,30.7009375 35,31.5625 L35,75.9375 L35,75.9375 Z" id="Shape" fill="#333333"></path>
                    <mask id="mask-2" fill="white">
                        <use xlink:href="#path-1"></use>
                    </mask>
                    <use id="Shape" fill="#333333" xlink:href="#path-1"></use>
                </g>
            </g>
        </g>
    </g>
</svg>