<?xml version="1.0" encoding="UTF-8" standalone="no"?>
<svg width="80px" height="80px" viewBox="0 0 80 80" version="1.1" xmlns="http://www.w3.org/2000/svg" xmlns:xlink="http://www.w3.org/1999/xlink">
    <!-- Generator: Sketch 40 (33762) - http://www.bohemiancoding.com/sketch -->
    <title>CMSimplementation</title>
    <desc>Created with Sketch.</desc>
    <defs></defs>
    <g id="Page-1" stroke="none" stroke-width="1" fill="none" fill-rule="evenodd">
        <g id="CMSimplementation" fill="#333333">
            <g id="Layer_1">
                <g id="Group">
                    <path d="M75.9375,7.5 L73.4375,7.5 C72.7471875,7.5 72.1875,8.0596875 72.1875,8.75 C72.1875,9.4403125 72.7471875,10 73.4375,10 L75.9375,10 C76.7990625,10 77.5,10.7009375 77.5,11.5625 L77.5,62.1875 C77.5,63.0490625 76.7990625,63.75 75.9375,63.75 L14.0625,63.75 C13.2009375,63.75 12.5,63.0490625 12.5,62.1875 L12.5,34.375 C12.5,33.6846875 11.9403125,33.125 11.25,33.125 C10.5596875,33.125 10,33.6846875 10,34.375 L10,62.1875 C10,64.4275 11.8225,66.25 14.0625,66.25 L35,66.25 L35,71.25 C35,71.939375 34.439375,72.5 33.75,72.5 L28.125,72.5 C26.0571875,72.5 24.375,74.1821875 24.375,76.25 L24.375,78.75 C24.375,79.4403125 24.9346875,80 25.625,80 L64.375,80 C65.0653125,80 65.625,79.4403125 65.625,78.75 L65.625,76.25 C65.625,74.1821875 63.9428125,72.5 61.875,72.5 L56.25,72.5 C55.560625,72.5 55,71.939375 55,71.25 L55,66.25 L75.9375,66.25 C78.1775,66.25 80,64.4275 80,62.1875 L80,11.5625 C80,9.3225 78.1775,7.5 75.9375,7.5 L75.9375,7.5 Z M56.25,75 L61.875,75 C62.564375,75 63.125,75.560625 63.125,76.25 L63.125,77.5 L26.875,77.5 L26.875,76.25 C26.875,75.560625 27.435625,75 28.125,75 L33.75,75 C35.8178125,75 37.5,73.3178125 37.5,71.25 L37.5,66.25 L52.5,66.25 L52.5,71.25 C52.5,73.3178125 54.1821875,75 56.25,75 L56.25,75 Z" id="Shape"></path>
                    <path d="M75,55 L75,22.5 C75,21.8096875 74.4403125,21.25 73.75,21.25 C73.0596875,21.25 72.5,21.8096875 72.5,22.5 L72.5,53.75 L17.5,53.75 L17.5,35 C17.5,34.3096875 16.9403125,33.75 16.25,33.75 C15.5596875,33.75 15,34.3096875 15,35 L15,55 C15,55.6903125 15.5596875,56.25 16.25,56.25 L73.75,56.25 C74.4403125,56.25 75,55.6903125 75,55 L75,55 Z" id="Shape"></path>
                    <circle id="Oval" cx="45" cy="60" r="1.25"></circle>
                    <path d="M21.25,32.8125 C20.5596875,32.8125 20,33.3721875 20,34.0625 L20,40 C20,40.6903125 20.5596875,41.25 21.25,41.25 L68.75,41.25 C69.4403125,41.25 70,40.6903125 70,40 L70,29.6875 C70,28.9971875 69.4403125,28.4375 68.75,28.4375 C68.0596875,28.4375 67.5,28.9971875 67.5,29.6875 L67.5,38.75 L22.5,38.75 L22.5,34.0625 C22.5,33.3721875 21.9403125,32.8125 21.25,32.8125 L21.25,32.8125 Z" id="Shape"></path>
                    <path d="M20,50 C20,50.6903125 20.5596875,51.25 21.25,51.25 L42.5,51.25 C43.1903125,51.25 43.75,50.6903125 43.75,50 L43.75,45 C43.75,44.3096875 43.1903125,43.75 42.5,43.75 L21.25,43.75 C20.5596875,43.75 20,44.3096875 20,45 L20,50 L20,50 Z M22.5,46.25 L41.25,46.25 L41.25,48.75 L22.5,48.75 L22.5,46.25 L22.5,46.25 Z" id="Shape"></path>
                    <path d="M68.75,43.75 L47.5,43.75 C46.8096875,43.75 46.25,44.3096875 46.25,45 L46.25,50 C46.25,50.6903125 46.8096875,51.25 47.5,51.25 L68.75,51.25 C69.4403125,51.25 70,50.6903125 70,50 L70,45 C70,44.3096875 69.4403125,43.75 68.75,43.75 L68.75,43.75 Z M67.5,48.75 L48.75,48.75 L48.75,46.25 L67.5,46.25 L67.5,48.75 L67.5,48.75 Z" id="Shape"></path>
                    <path d="M25.6215625,27.6165625 C28.33375,29.883125 31.8221875,31.25 35.625,31.25 C39.4259375,31.25 42.91,29.88125 45.6215625,27.6165625 C48.33375,29.883125 51.8221875,31.25 55.625,31.25 C64.240625,31.25 71.25,24.240625 71.25,15.625 C71.25,7.009375 64.240625,0 55.625,0 C51.8221875,0 48.33375,1.366875 45.6215625,3.6334375 C42.91,1.36875 39.4259375,0 35.625,0 C31.8221875,0 28.33375,1.366875 25.6215625,3.6334375 C22.91,1.36875 19.4259375,0 15.625,0 C7.009375,0 0,7.009375 0,15.625 C0,24.240625 7.009375,31.25 15.625,31.25 C19.4259375,31.25 22.91,29.88125 25.6215625,27.6165625 L25.6215625,27.6165625 Z M68.75,15.625 C68.75,22.8621875 62.8621875,28.75 55.625,28.75 C48.3878125,28.75 42.5,22.8621875 42.5,15.625 C42.5,8.3878125 48.3878125,2.5 55.625,2.5 C62.8621875,2.5 68.75,8.3878125 68.75,15.625 L68.75,15.625 Z M31.881875,18.75 C30.320625,17.5775 29.375,15.723125 29.375,13.75 C29.375,10.30375 32.17875,7.5 35.625,7.5 C37.8440625,7.5 39.789375,8.6659375 40.8965625,10.4146875 C40.318125,12.0453125 40,13.7984375 40,15.625 C40,16.4375 40.0628125,17.2359375 40.1828125,18.0153125 C39.9346875,18.281875 39.6628125,18.5284375 39.368125,18.75 L31.881875,18.75 L31.881875,18.75 Z M38.125,21.25 L38.125,22.8125 C38.125,23.436875 38.125,23.75 35.625,23.75 C33.125,23.75 33.125,23.436875 33.125,22.8125 L33.125,21.25 L38.125,21.25 L38.125,21.25 Z M43.83125,5.3928125 C43.1709375,6.1528125 42.5834375,6.9765625 42.078125,7.8540625 C40.4771875,6.103125 38.1790625,5 35.625,5 C30.8003125,5 26.875,8.9253125 26.875,13.75 C26.875,16.614375 28.295,19.301875 30.625,20.92875 L30.625,22.8125 C30.625,26.25 33.8775,26.25 35.625,26.25 C37.3725,26.25 40.625,26.25 40.625,22.8125 L40.625,20.92875 C40.7084375,20.870625 40.784375,20.8040625 40.8653125,20.743125 C41.525,22.6403125 42.54,24.3709375 43.8315625,25.8571875 C41.5825,27.6653125 38.72875,28.75 35.625,28.75 C28.3878125,28.75 22.5,22.8621875 22.5,15.625 C22.5,8.3878125 28.3878125,2.5 35.625,2.5 C38.72875,2.5 41.5825,3.5846875 43.83125,5.3928125 L43.83125,5.3928125 Z M20.2934375,18.6325 L15.6015625,23.26625 L8.585,16.7003125 C7.885,15.99375 7.5,15.0578125 7.5,14.0625 C7.5,13.0609375 7.89,12.1190625 8.5984375,11.4109375 C9.3065625,10.7028125 10.2484375,10.3125 11.25,10.3125 C12.2515625,10.3125 13.1934375,10.7028125 13.9015625,11.41125 L14.0384375,11.5490625 C14.564375,12.0803125 14.98,12.5 15.625,12.5 C16.27,12.5 16.685625,12.0803125 17.21125,11.5490625 L17.348125,11.4109375 C18.0565625,10.7028125 18.9984375,10.3125 20,10.3125 C20.305625,10.3125 20.6046875,10.35125 20.8940625,10.4221875 C20.3171875,12.050625 20,13.80125 20,15.625 C20,16.65375 20.1028125,17.65875 20.2934375,18.6325 L20.2934375,18.6325 Z M2.5,15.625 C2.5,8.3878125 8.3878125,2.5 15.625,2.5 C18.72875,2.5 21.5825,3.5846875 23.83125,5.3928125 C23.1046875,6.2290625 22.4634375,7.14125 21.925625,8.11875 C21.311875,7.91875 20.664375,7.8125 20,7.8125 C18.35125,7.8125 16.8,8.4465625 15.625,9.599375 C14.4496875,8.4465625 12.8984375,7.8125 11.25,7.8125 C9.580625,7.8125 8.01125,8.4628125 6.830625,9.643125 C5.65,10.8234375 5,12.393125 5,14.0625 C5,15.731875 5.65,17.3015625 6.830625,18.4821875 C6.8403125,18.491875 6.85,18.5015625 6.8603125,18.5109375 L14.770625,25.9128125 C15.0115625,26.1378125 15.3184375,26.25 15.625,26.25 C15.9428125,26.25 16.2603125,26.129375 16.5034375,25.889375 L21.0934375,21.3559375 C21.7496875,23.01375 22.680625,24.5325 23.83125,25.856875 C21.5825,27.6653125 18.72875,28.75 15.625,28.75 C8.3878125,28.75 2.5,22.8621875 2.5,15.625 L2.5,15.625 Z" id="Shape"></path>
                    <path d="M45,12.5 L45,22.1875 C45,22.8778125 45.5596875,23.4375 46.25,23.4375 L51.25,23.4375 C51.7565625,23.4375 52.190625,23.1346875 52.386875,22.70125 C53.4528125,23.059375 54.838125,23.4375 55.9375,23.4375 L62.5,23.4375 C63.8784375,23.4375 65,22.3159375 65,20.9375 L65,20.3134375 C65.2390625,19.980625 65.625,19.37 65.625,18.4375 L65.625,17.7290625 C65.6365625,17.71 65.64875,17.690625 65.66125,17.6703125 C65.88125,17.30875 66.25,16.7034375 66.25,15.9375 C66.25,15.3103125 66.1409375,14.90875 66,14.59875 C66.1075,14.3040625 66.25,13.9040625 66.25,13.4375 C66.25,12.0590625 65.1284375,10.9375 63.75,10.9375 L62.3865625,10.9375 C62.4490625,10.381875 62.5,9.7246875 62.5,9.0625 C62.5,6.3228125 61.215,4.6875 59.0625,4.6875 C56.9215625,4.6875 56.6134375,6.5090625 56.4478125,7.4875 C56.285625,8.4446875 56.1184375,9.434375 55.1121875,10.319375 C54.055625,11.2484375 53.1228125,11.7834375 52.4265625,12.0928125 C52.256875,11.6034375 51.796875,11.25 51.25,11.25 L46.25,11.25 C45.5596875,11.25 45,11.8096875 45,12.5 L45,12.5 Z M52.5,14.7415625 C53.4871875,14.4290625 55.011875,13.736875 56.763125,12.196875 C58.435625,10.7265625 58.7228125,9.0284375 58.9128125,7.9046875 C58.953125,7.6678125 59.0046875,7.3621875 59.0571875,7.1875 C59.3403125,7.1825 60.0003125,7.1753125 60.0003125,9.0625 C60.0003125,10.4753125 59.714375,11.9278125 59.7115625,11.9415625 C59.638125,12.30875 59.7328125,12.69 59.9703125,12.979375 C60.2078125,13.2690625 60.5628125,13.4371875 60.9371875,13.4371875 L63.750625,13.4246875 C63.744375,13.486875 63.685,13.6503125 63.645625,13.7584375 C63.548125,14.0265625 63.4375,14.3296875 63.4375,14.6875 C63.4375,15.1334375 63.61375,15.4390625 63.6984375,15.5859375 C63.70625,15.6 63.71625,15.6146875 63.723125,15.629375 C63.7234375,15.63 63.75,15.708125 63.7503125,15.930625 C63.74,16.0190625 63.600625,16.2478125 63.5259375,16.370625 C63.3471875,16.66375 63.125,17.02875 63.125,17.5 L63.125,18.4375 C63.125,18.6440625 63.0603125,18.731875 62.9184375,18.9253125 C62.761875,19.138125 62.5,19.4946875 62.5,20 L62.5,20.9375 L55.9375,20.9375 C54.998125,20.9375 53.4959375,20.4584375 52.5,20.0878125 L52.5,14.7415625 L52.5,14.7415625 Z M47.5,13.75 L50,13.75 L50,20.9375 L47.5,20.9375 L47.5,13.75 L47.5,13.75 Z" id="Shape"></path>
                </g>
            </g>
        </g>
    </g>
</svg>