<?xml version="1.0" encoding="UTF-8" standalone="no"?>
<svg width="80px" height="80px" viewBox="0 0 80 80" version="1.1" xmlns="http://www.w3.org/2000/svg" xmlns:xlink="http://www.w3.org/1999/xlink">
    <!-- Generator: Sketch 40 (33762) - http://www.bohemiancoding.com/sketch -->
    <title>development</title>
    <desc>Created with Sketch.</desc>
    <defs></defs>
    <g id="Page-1" stroke="none" stroke-width="1" fill="none" fill-rule="evenodd">
        <g id="development" fill="#333333">
            <g id="Layer_1">
                <g id="Group">
                    <path d="M72.5,6.25 L7.5,6.25 C6.8096875,6.25 6.25,6.8096875 6.25,7.5 L6.25,53.75 C6.25,54.4403125 6.8096875,55 7.5,55 L72.5,55 C73.1903125,55 73.75,54.4403125 73.75,53.75 L73.75,7.5 C73.75,6.8096875 73.1903125,6.25 72.5,6.25 L72.5,6.25 Z M71.25,52.5 L8.75,52.5 L8.75,8.75 L71.25,8.75 L71.25,52.5 L71.25,52.5 Z" id="Shape"></path>
                    <path d="M54.2975,30.6346875 L47.950625,35.9140625 C47.4196875,36.355625 47.3471875,37.14375 47.78875,37.674375 C48.0359375,37.9715625 48.391875,38.125 48.7503125,38.125 C49.031875,38.125 49.315625,38.0303125 49.5490625,37.8359375 L57.0490625,31.5975 C57.334375,31.3603125 57.499375,31.00875 57.4996875,30.6375 C57.5,30.2665625 57.335625,29.9146875 57.050625,29.676875 L49.550625,23.4153125 C49.02125,22.973125 48.2325,23.0434375 47.79,23.57375 C47.3475,24.10375 47.4184375,24.891875 47.9484375,25.334375 L54.2975,30.6346875 L54.2975,30.6346875 Z" id="Shape"></path>
                    <path d="M30.763125,37.8359375 C30.9965625,38.0303125 31.2796875,38.125 31.561875,38.125 C31.9203125,38.125 32.27625,37.9715625 32.5234375,37.674375 C32.965,37.1434375 32.8928125,36.3553125 32.3615625,35.9140625 L26.0146875,30.6346875 L32.363125,25.3346875 C32.893125,24.8921875 32.9640625,24.1040625 32.5215625,23.5740625 C32.0790625,23.04375 31.290625,22.9734375 30.7609375,23.415625 L23.2609375,29.6771875 C22.97625,29.915 22.8115625,30.266875 22.811875,30.6378125 C22.8121875,31.0090625 22.9771875,31.3603125 23.2625,31.5978125 L30.763125,37.8359375 L30.763125,37.8359375 Z" id="Shape"></path>
                    <path d="M35.7859375,41.160625 C35.938125,41.2215625 36.095,41.2503125 36.2496875,41.2503125 C36.745625,41.2503125 37.215,40.9528125 37.410625,40.4640625 L44.910625,21.7140625 C45.166875,21.073125 44.8553125,20.345625 44.2140625,20.089375 C43.57375,19.833125 42.8459375,20.144375 42.589375,20.7859375 L35.089375,39.5359375 C34.833125,40.1765625 35.1446875,40.904375 35.7859375,41.160625 L35.7859375,41.160625 Z" id="Shape"></path>
                    <path d="M75.9375,0 L4.0625,0 C1.8225,0 0,1.8225 0,4.0625 L0,60.9375 C0,63.1775 1.8225,65 4.0625,65 L30,65 L30,71.25 C30,71.939375 29.439375,72.5 28.75,72.5 L20.625,72.5 C18.5571875,72.5 16.875,74.1821875 16.875,76.25 L16.875,78.75 C16.875,79.4403125 17.4346875,80 18.125,80 L61.875,80 C62.5653125,80 63.125,79.4403125 63.125,78.75 L63.125,76.25 C63.125,74.1821875 61.4428125,72.5 59.375,72.5 L51.25,72.5 C50.560625,72.5 50,71.939375 50,71.25 L50,65 L75.9375,65 C78.1775,65 80,63.1775 80,60.9375 L80,4.0625 C80,1.8225 78.1775,0 75.9375,0 L75.9375,0 Z M51.25,75 L59.375,75 C60.064375,75 60.625,75.560625 60.625,76.25 L60.625,77.5 L19.375,77.5 L19.375,76.25 C19.375,75.560625 19.935625,75 20.625,75 L28.75,75 C30.8178125,75 32.5,73.3178125 32.5,71.25 L32.5,65 L47.5,65 L47.5,71.25 C47.5,73.3178125 49.1821875,75 51.25,75 L51.25,75 Z M77.5,60.9375 C77.5,61.7990625 76.7990625,62.5 75.9375,62.5 L4.0625,62.5 C3.2009375,62.5 2.5,61.7990625 2.5,60.9375 L2.5,4.0625 C2.5,3.2009375 3.2009375,2.5 4.0625,2.5 L75.9375,2.5 C76.7990625,2.5 77.5,3.2009375 77.5,4.0625 L77.5,60.9375 L77.5,60.9375 Z" id="Shape"></path>
                    <circle id="Oval" cx="40" cy="58.75" r="1.25"></circle>
                </g>
            </g>
        </g>
    </g>
</svg>