<?xml version="1.0" encoding="UTF-8" standalone="no"?>
<svg width="80px" height="80px" viewBox="0 0 80 80" version="1.1" xmlns="http://www.w3.org/2000/svg" xmlns:xlink="http://www.w3.org/1999/xlink">
    <!-- Generator: Sketch 40 (33762) - http://www.bohemiancoding.com/sketch -->
    <title>graphic</title>
    <desc>Created with Sketch.</desc>
    <defs></defs>
    <g id="Page-1" stroke="none" stroke-width="1" fill="none" fill-rule="evenodd">
        <g id="graphic" fill="#333333">
            <g id="Layer_1">
                <g id="Group">
                    <path d="M72.5,6.25 L7.5,6.25 C6.8096875,6.25 6.25,6.8096875 6.25,7.5 L6.25,53.75 C6.25,54.4403125 6.8096875,55 7.5,55 L72.5,55 C73.1903125,55 73.75,54.4403125 73.75,53.75 L73.75,7.5 C73.75,6.8096875 73.1903125,6.25 72.5,6.25 L72.5,6.25 Z M71.25,52.5 L8.75,52.5 L8.75,8.75 L71.25,8.75 L71.25,52.5 L71.25,52.5 Z" id="Shape"></path>
                    <path d="M75.9375,0 L4.0625,0 C1.8225,0 0,1.8225 0,4.0625 L0,60.9375 C0,63.1775 1.8225,65 4.0625,65 L30,65 L30,71.25 C30,71.939375 29.439375,72.5 28.75,72.5 L20.625,72.5 C18.5571875,72.5 16.875,74.1821875 16.875,76.25 L16.875,78.75 C16.875,79.4403125 17.4346875,80 18.125,80 L61.875,80 C62.5653125,80 63.125,79.4403125 63.125,78.75 L63.125,76.25 C63.125,74.1821875 61.4428125,72.5 59.375,72.5 L51.25,72.5 C50.560625,72.5 50,71.939375 50,71.25 L50,65 L75.9375,65 C78.1775,65 80,63.1775 80,60.9375 L80,4.0625 C80,1.8225 78.1775,0 75.9375,0 L75.9375,0 Z M51.25,75 L59.375,75 C60.064375,75 60.625,75.560625 60.625,76.25 L60.625,77.5 L19.375,77.5 L19.375,76.25 C19.375,75.560625 19.935625,75 20.625,75 L28.75,75 C30.8178125,75 32.5,73.3178125 32.5,71.25 L32.5,65 L47.5,65 L47.5,71.25 C47.5,73.3178125 49.1821875,75 51.25,75 L51.25,75 Z M77.5,60.9375 C77.5,61.7990625 76.7990625,62.5 75.9375,62.5 L4.0625,62.5 C3.2009375,62.5 2.5,61.7990625 2.5,60.9375 L2.5,4.0625 C2.5,3.2009375 3.2009375,2.5 4.0625,2.5 L75.9375,2.5 C76.7990625,2.5 77.5,3.2009375 77.5,4.0625 L77.5,60.9375 L77.5,60.9375 Z" id="Shape"></path>
                    <circle id="Oval" cx="40" cy="58.75" r="1.25"></circle>
                    <path d="M47.8475,46.32375 C49.7815625,48.341875 51.6946875,49.7109375 51.775,49.768125 C51.991875,49.9225 52.2459375,49.9996875 52.4996875,49.9996875 C52.7528125,49.9996875 53.005625,49.923125 53.2221875,49.7696875 C53.3025,49.7125 55.21625,48.3496875 57.15125,46.3340625 C59.87125,43.501875 61.25,40.8446875 61.25,38.4375 C61.25,34.9284375 60.1090625,32.6325 59.2509375,31.401875 C60.1621875,30.39 61.25,28.4575 61.25,25 C61.25,22.65 59.9040625,19.6640625 57.25,16.125 C55.3434375,13.583125 53.463125,11.6953125 53.38375,11.6159375 C53.149375,11.3815625 52.8315625,11.25 52.5,11.25 L52.4978125,11.25 C52.165625,11.250625 51.8471875,11.3834375 51.613125,11.6190625 C51.5340625,11.69875 49.654375,13.5984375 47.7490625,16.145625 C45.095625,19.693125 43.75,22.6721875 43.75,25 C43.75,28.4575 44.8378125,30.39 45.7490625,31.401875 C44.8909375,32.6325 43.75,34.9284375 43.75,38.4375 C43.75,40.8334375 45.1284375,43.486875 47.8475,46.32375 L47.8475,46.32375 Z M52.4596875,14.3615625 C54.6115625,17.099375 53.7234375,18.514375 52.3421875,20.7078125 C51.3909375,22.2184375 50.3125,23.9309375 50.3125,26.25 C50.3125,26.9403125 50.8721875,27.5 51.5625,27.5 C52.2528125,27.5 52.8125,26.9403125 52.8125,26.25 C52.8125,24.6525 53.611875,23.3834375 54.4578125,22.04 C55.07375,21.0621875 55.7475,19.989375 56.059375,18.7521875 C57.535625,20.8965625 58.75,23.2178125 58.75,25 C58.75,28.29125 57.5878125,29.600625 57.1115625,30 L47.88875,30 C47.4121875,29.600625 46.25,28.29125 46.25,25 C46.25,21.8465625 50.1371875,16.914375 52.4596875,14.3615625 L52.4596875,14.3615625 Z M58.245625,35 L46.748125,35 C47.154375,33.7159375 47.7096875,32.90375 48.041875,32.5 L56.9540625,32.5 C57.2834375,32.9053125 57.838125,33.7215625 58.245625,35 L58.245625,35 Z M46.2865625,37.5 L58.7128125,37.5 C58.7346875,37.8003125 58.75,38.1096875 58.75,38.4375 C58.75,41.6153125 54.743125,45.42375 52.5015625,47.18625 C50.2596875,45.416875 46.25,41.5984375 46.25,38.4375 C46.25,38.109375 46.265,37.8 46.2865625,37.5 L46.2865625,37.5 Z" id="Shape"></path>
                    <path d="M20,50 L35,50 C35.6903125,50 36.25,49.4403125 36.25,48.75 L36.25,25 C36.25,24.7734375 36.1884375,24.5509375 36.071875,24.356875 L28.571875,11.856875 C28.3459375,11.4803125 27.9390625,11.25 27.5,11.25 C27.0609375,11.25 26.6540625,11.4803125 26.428125,11.856875 L18.928125,24.356875 C18.8115625,24.5509375 18.75,24.7734375 18.75,25 L18.75,48.75 C18.75,49.4403125 19.3096875,50 20,50 L20,50 Z M33.75,47.5 L28.75,47.5 L28.75,29.321875 C29.485625,29.7509375 30.3384375,30 31.25,30 C32.1615625,30 33.014375,29.7509375 33.75,29.321875 L33.75,47.5 L33.75,47.5 Z M27.5,14.929375 L28.9159375,17.2890625 C28.4553125,17.426875 27.9778125,17.5 27.5,17.5 C27.0221875,17.5 26.5446875,17.426875 26.0840625,17.289375 L27.5,14.929375 L27.5,14.929375 Z M24.7715625,19.476875 C25.6403125,19.8184375 26.5646875,20 27.5,20 C28.4353125,20 29.3596875,19.8184375 30.2284375,19.476875 L33.72875,25.310625 C33.575,26.5428125 32.523125,27.5 31.25,27.5 C29.8715625,27.5 28.75,26.3784375 28.75,25 C28.75,24.3096875 28.1903125,23.75 27.5,23.75 C26.8096875,23.75 26.25,24.3096875 26.25,25 C26.25,26.3784375 25.1284375,27.5 23.75,27.5 C22.476875,27.5 21.425,26.5428125 21.27125,25.310625 L24.7715625,19.476875 L24.7715625,19.476875 Z M21.25,29.321875 C21.985625,29.7509375 22.8384375,30 23.75,30 C24.6615625,30 25.514375,29.7509375 26.25,29.321875 L26.25,47.5 L21.25,47.5 L21.25,29.321875 L21.25,29.321875 Z" id="Shape"></path>
                </g>
            </g>
        </g>
    </g>
</svg>