<?xml version="1.0" encoding="UTF-8" standalone="no"?>
<svg width="80px" height="95px" viewBox="0 0 80 95" version="1.1" xmlns="http://www.w3.org/2000/svg" xmlns:xlink="http://www.w3.org/1999/xlink">
    <!-- Generator: Sketch 40 (33762) - http://www.bohemiancoding.com/sketch -->
    <title>interface</title>
    <desc>Created with Sketch.</desc>
    <defs></defs>
    <g id="Page-1" stroke="none" stroke-width="1" fill="none" fill-rule="evenodd">
        <g id="interface" fill="#333333">
            <g id="Layer_1">
                <g id="Group">
                    <path d="M78.5185185,0 L1.48148148,0 C0.663333333,0 0,0.663333333 0,1.48148148 L0,93.3333333 C0,94.1514815 0.663333333,94.8148148 1.48148148,94.8148148 L78.5185185,94.8148148 C79.3366667,94.8148148 80,94.1514815 80,93.3333333 L80,1.48148148 C80,0.663333333 79.3366667,0 78.5185185,0 L78.5185185,0 Z M77.037037,91.8518519 L2.96296296,91.8518519 L2.96296296,2.96296296 L77.037037,2.96296296 L77.037037,91.8518519 L77.037037,91.8518519 Z" id="-"></path>
                    <path d="M10.3703704,38.5185185 L69.6296296,38.5185185 C70.4477778,38.5185185 71.1111111,37.8551852 71.1111111,37.037037 L71.1111111,10.3703704 C71.1111111,9.55222222 70.4477778,8.88888889 69.6296296,8.88888889 L10.3703704,8.88888889 C9.55222222,8.88888889 8.88888889,9.55222222 8.88888889,10.3703704 L8.88888889,37.037037 C8.88888889,37.8551852 9.55222222,38.5185185 10.3703704,38.5185185 L10.3703704,38.5185185 Z M17.2725926,35.5555556 L40,25.3281481 L62.7274074,35.5555556 L17.2725926,35.5555556 L17.2725926,35.5555556 Z M68.1481481,34.7459259 L43.61,23.7037037 L68.1481481,12.6614815 L68.1481481,34.7459259 L68.1481481,34.7459259 Z M62.7274074,11.8518519 L40,22.0792593 L17.2725926,11.8518519 L62.7274074,11.8518519 L62.7274074,11.8518519 Z M11.8518519,12.6614815 L36.39,23.7037037 L11.8518519,34.7459259 L11.8518519,12.6614815 L11.8518519,12.6614815 Z" id="Shape"></path>
                    <path d="M10.3703704,80 L69.6296296,80 C70.4477778,80 71.1111111,79.3366667 71.1111111,78.5185185 C71.1111111,77.7003704 70.4477778,77.037037 69.6296296,77.037037 L10.3703704,77.037037 C9.55222222,77.037037 8.88888889,77.7003704 8.88888889,78.5185185 C8.88888889,79.3366667 9.55222222,80 10.3703704,80 L10.3703704,80 Z" id="Shape"></path>
                    <path d="M10.3703704,85.9259259 L69.6296296,85.9259259 C70.4477778,85.9259259 71.1111111,85.2625926 71.1111111,84.4444444 C71.1111111,83.6262963 70.4477778,82.962963 69.6296296,82.962963 L10.3703704,82.962963 C9.55222222,82.962963 8.88888889,83.6262963 8.88888889,84.4444444 C8.88888889,85.2625926 9.55222222,85.9259259 10.3703704,85.9259259 L10.3703704,85.9259259 Z" id="Shape"></path>
                    <path d="M69.6296296,47.4074074 L31.1111111,47.4074074 C30.292963,47.4074074 29.6296296,48.0707407 29.6296296,48.8888889 C29.6296296,49.707037 30.292963,50.3703704 31.1111111,50.3703704 L69.6296296,50.3703704 C70.4477778,50.3703704 71.1111111,49.707037 71.1111111,48.8888889 C71.1111111,48.0707407 70.4477778,47.4074074 69.6296296,47.4074074 L69.6296296,47.4074074 Z" id="Shape"></path>
                    <path d="M69.6296296,53.3333333 L31.1111111,53.3333333 C30.292963,53.3333333 29.6296296,53.9966667 29.6296296,54.8148148 C29.6296296,55.632963 30.292963,56.2962963 31.1111111,56.2962963 L69.6296296,56.2962963 C70.4477778,56.2962963 71.1111111,55.632963 71.1111111,54.8148148 C71.1111111,53.9966667 70.4477778,53.3333333 69.6296296,53.3333333 L69.6296296,53.3333333 Z" id="Shape"></path>
                    <path d="M69.6296296,59.2592593 L31.1111111,59.2592593 C30.292963,59.2592593 29.6296296,59.9225926 29.6296296,60.7407407 C29.6296296,61.5588889 30.292963,62.2222222 31.1111111,62.2222222 L69.6296296,62.2222222 C70.4477778,62.2222222 71.1111111,61.5588889 71.1111111,60.7407407 C71.1111111,59.9225926 70.4477778,59.2592593 69.6296296,59.2592593 L69.6296296,59.2592593 Z" id="Shape"></path>
                    <path d="M10.3703704,74.0740741 L25.1851852,74.0740741 C26.0033333,74.0740741 26.6666667,73.4107407 26.6666667,72.5925926 L26.6666667,48.8888889 C26.6666667,48.0707407 26.0033333,47.4074074 25.1851852,47.4074074 L10.3703704,47.4074074 C9.55222222,47.4074074 8.88888889,48.0707407 8.88888889,48.8888889 L8.88888889,72.5925926 C8.88888889,73.4107407 9.55222222,74.0740741 10.3703704,74.0740741 L10.3703704,74.0740741 Z M13.0433333,71.1111111 L17.7777778,63.5359259 L22.5122222,71.1111111 L13.0433333,71.1111111 L13.0433333,71.1111111 Z M23.7037037,67.427037 L19.5248148,60.7407407 L23.7037037,54.0544444 L23.7037037,67.427037 L23.7037037,67.427037 Z M22.5122222,50.3703704 L17.7777778,57.9455556 L13.0433333,50.3703704 L22.5122222,50.3703704 L22.5122222,50.3703704 Z M11.8518519,54.0544444 L16.0307407,60.7407407 L11.8518519,67.427037 L11.8518519,54.0544444 L11.8518519,54.0544444 Z" id="Shape"></path>
                    <path d="M71.1111111,66.6666667 C71.1111111,65.8485185 70.4477778,65.1851852 69.6296296,65.1851852 L31.1111111,65.1851852 C30.292963,65.1851852 29.6296296,65.8485185 29.6296296,66.6666667 C29.6296296,67.4848148 30.292963,68.1481481 31.1111111,68.1481481 L69.6296296,68.1481481 C70.4477778,68.1481481 71.1111111,67.4848148 71.1111111,66.6666667 L71.1111111,66.6666667 Z" id="Shape"></path>
                    <path d="M31.1111111,71.1111111 C30.292963,71.1111111 29.6296296,71.7744444 29.6296296,72.5925926 C29.6296296,73.4107407 30.292963,74.0740741 31.1111111,74.0740741 L63.7037037,74.0740741 C64.5218519,74.0740741 65.1851852,73.4107407 65.1851852,72.5925926 C65.1851852,71.7744444 64.5218519,71.1111111 63.7037037,71.1111111 L31.1111111,71.1111111 L31.1111111,71.1111111 Z" id="Shape"></path>
                </g>
            </g>
        </g>
    </g>
</svg>