<?xml version="1.0" encoding="UTF-8" standalone="no"?>
<svg width="362px" height="84px" viewBox="0 0 362 84" version="1.1" xmlns="http://www.w3.org/2000/svg" xmlns:xlink="http://www.w3.org/1999/xlink">
    <!-- Generator: Sketch 40 (33762) - http://www.bohemiancoding.com/sketch -->
    <title>matt-culloty-name-small</title>
    <desc>Created with Sketch.</desc>
    <defs></defs>
    <g id="Page-1" stroke="none" stroke-width="1" fill="none" fill-rule="evenodd">
        <g id="matt-culloty-name" transform="translate(2.000000, 2.000000)">
            <polygon id="Stroke-1" stroke="#333333" stroke-width="4" points="0 80 80 80 80 0 0 0"></polygon>
            <polygon id="Stroke-1" stroke="#333333" stroke-width="4" points="0 80 358 80 358 0 0 0"></polygon>
            <polygon id="M" fill="#333333" points="33.34 17.6 30.18 17.6 26.46 26.04 22.74 17.6 19.58 17.6 19.58 32 22.3 32 22.3 22.4 25.42 29.7 27.5 29.7 30.62 22.4 30.62 32 33.34 32"></polygon>
            <polygon id="T" fill="#333333" points="60.9 51.28 60.9 48.6 50.5 48.6 50.5 51.28 54.26 51.28 54.26 63 57.14 63 57.14 51.28"></polygon>
            <polygon id="T" fill="#333333" points="31.9 51.28 31.9 48.6 21.5 48.6 21.5 51.28 25.26 51.28 25.26 63 28.14 63 28.14 51.28"></polygon>
            <path d="M53.26,28.76 L57.92,28.76 L58.86,32 L61.96,32 L57.32,17.6 L53.96,17.6 L49.32,32 L52.3,32 L53.26,28.76 Z M55.62,20.76 L57.14,26.04 L54.06,26.04 L55.62,20.76 Z" id="A" fill="#333333"></path>
            <path d="M143.6,38.68 L146.48,38.68 L146.48,36.36 C146.48,34.68 145.32,33.52 143.64,33.52 L139.08,33.52 C137.4,33.52 136.24,34.68 136.24,36.36 L136.24,45.24 C136.24,46.92 137.4,48.08 139.08,48.08 L143.64,48.08 C145.32,48.08 146.48,46.92 146.48,45.24 L146.48,42.92 L143.6,42.92 L143.6,44.68 C143.6,45.12 143.36,45.36 142.92,45.36 L139.8,45.36 C139.36,45.36 139.12,45.12 139.12,44.68 L139.12,36.92 C139.12,36.48 139.36,36.24 139.8,36.24 L142.92,36.24 C143.36,36.24 143.6,36.48 143.6,36.92 L143.6,38.68 Z M171.399999,33.6 L168.519999,33.6 L168.519999,44.68 C168.519999,45.12 168.279999,45.36 167.839999,45.36 L164.679999,45.36 C164.239999,45.36 163.999999,45.12 163.999999,44.68 L163.999999,33.6 L161.119999,33.6 L161.119999,45.24 C161.119999,46.92 162.279999,48.08 163.959999,48.08 L168.559999,48.08 C170.239999,48.08 171.399999,46.92 171.399999,45.24 L171.399999,33.6 Z M186.639998,33.6 L186.639998,48 L195.559998,48 L195.559998,45.28 L189.519998,45.28 L189.519998,33.6 L186.639998,33.6 Z M210.039998,33.6 L210.039998,48 L218.959998,48 L218.959998,45.28 L212.919998,45.28 L212.919998,33.6 L210.039998,33.6 Z M235.619997,33.52 C233.939997,33.52 232.779997,34.68 232.779997,36.36 L232.779997,45.24 C232.779997,46.92 233.939997,48.08 235.619997,48.08 L240.439997,48.08 C242.119997,48.08 243.279997,46.92 243.279997,45.24 L243.279997,36.36 C243.279997,34.68 242.119997,33.52 240.439997,33.52 L235.619997,33.52 Z M240.399997,44.68 C240.399997,45.12 240.159997,45.36 239.719997,45.36 L236.339997,45.36 C235.899997,45.36 235.659997,45.12 235.659997,44.68 L235.659997,36.92 C235.659997,36.48 235.899997,36.24 236.339997,36.24 L239.719997,36.24 C240.159997,36.24 240.399997,36.48 240.399997,36.92 L240.399997,44.68 Z M267.479996,36.28 L267.479996,33.6 L257.079996,33.6 L257.079996,36.28 L260.839996,36.28 L260.839996,48 L263.719996,48 L263.719996,36.28 L267.479996,36.28 Z M287.779995,48 L287.779995,43.02 L292.219995,33.6 L289.059995,33.6 L286.339995,39.76 L283.619995,33.6 L280.459995,33.6 L284.899995,43.02 L284.899995,48 L287.779995,48 Z" id="CULLOTY" fill="#333333"></path>
        </g>
    </g>
</svg>