<?xml version="1.0" encoding="UTF-8" standalone="no"?>
<svg width="362px" height="125px" viewBox="0 0 362 125" version="1.1" xmlns="http://www.w3.org/2000/svg" xmlns:xlink="http://www.w3.org/1999/xlink">
    <!-- Generator: Sketch 40 (33762) - http://www.bohemiancoding.com/sketch -->
    <title>matt-culloty-hero</title>
    <desc>Created with Sketch.</desc>
    <defs></defs>
    <g id="Page-1" stroke="none" stroke-width="1" fill="none" fill-rule="evenodd">
        <g id="matt-culloty-hero" transform="translate(2.000000, 2.000000)">
            <polygon id="Stroke-1" stroke="#333333" stroke-width="4" points="0 121 358 121 358 0 0 0"></polygon>
            <polygon id="Stroke-1" stroke="#333333" stroke-width="4" points="0 80 80 80 80 0 0 0"></polygon>
            <polygon id="Stroke-1" stroke="#333333" stroke-width="4" points="0 80 358 80 358 0 0 0"></polygon>
            <polygon id="M" fill="#333333" points="33.34 17.1999404 30.18 17.1999404 26.46 25.6399404 22.74 17.1999404 19.58 17.1999404 19.58 31.5999404 22.3 31.5999404 22.3 21.9999404 25.42 29.2999404 27.5 29.2999404 30.62 21.9999404 30.62 31.5999404 33.34 31.5999404"></polygon>
            <polygon id="T" fill="#333333" points="60.9 50.8799404 60.9 48.1999404 50.5 48.1999404 50.5 50.8799404 54.26 50.8799404 54.26 62.5999404 57.14 62.5999404 57.14 50.8799404"></polygon>
            <polygon id="T" fill="#333333" points="31.9 50.8799404 31.9 48.1999404 21.5 48.1999404 21.5 50.8799404 25.26 50.8799404 25.26 62.5999404 28.14 62.5999404 28.14 50.8799404"></polygon>
            <path d="M53.26,28.3599404 L57.92,28.3599404 L58.86,31.5999404 L61.96,31.5999404 L57.32,17.1999404 L53.96,17.1999404 L49.32,31.5999404 L52.3,31.5999404 L53.26,28.3599404 Z M55.62,20.3599404 L57.14,25.6399404 L54.06,25.6399404 L55.62,20.3599404 Z" id="A" fill="#333333"></path>
            <path d="M143.6,38.68 L146.48,38.68 L146.48,36.36 C146.48,34.68 145.32,33.52 143.64,33.52 L139.08,33.52 C137.4,33.52 136.24,34.68 136.24,36.36 L136.24,45.24 C136.24,46.92 137.4,48.08 139.08,48.08 L143.64,48.08 C145.32,48.08 146.48,46.92 146.48,45.24 L146.48,42.92 L143.6,42.92 L143.6,44.68 C143.6,45.12 143.36,45.36 142.92,45.36 L139.8,45.36 C139.36,45.36 139.12,45.12 139.12,44.68 L139.12,36.92 C139.12,36.48 139.36,36.24 139.8,36.24 L142.92,36.24 C143.36,36.24 143.6,36.48 143.6,36.92 L143.6,38.68 Z M171.399999,33.6 L168.519999,33.6 L168.519999,44.68 C168.519999,45.12 168.279999,45.36 167.839999,45.36 L164.679999,45.36 C164.239999,45.36 163.999999,45.12 163.999999,44.68 L163.999999,33.6 L161.119999,33.6 L161.119999,45.24 C161.119999,46.92 162.279999,48.08 163.959999,48.08 L168.559999,48.08 C170.239999,48.08 171.399999,46.92 171.399999,45.24 L171.399999,33.6 Z M186.639998,33.6 L186.639998,48 L195.559998,48 L195.559998,45.28 L189.519998,45.28 L189.519998,33.6 L186.639998,33.6 Z M210.039998,33.6 L210.039998,48 L218.959998,48 L218.959998,45.28 L212.919998,45.28 L212.919998,33.6 L210.039998,33.6 Z M235.619997,33.52 C233.939997,33.52 232.779997,34.68 232.779997,36.36 L232.779997,45.24 C232.779997,46.92 233.939997,48.08 235.619997,48.08 L240.439997,48.08 C242.119997,48.08 243.279997,46.92 243.279997,45.24 L243.279997,36.36 C243.279997,34.68 242.119997,33.52 240.439997,33.52 L235.619997,33.52 Z M240.399997,44.68 C240.399997,45.12 240.159997,45.36 239.719997,45.36 L236.339997,45.36 C235.899997,45.36 235.659997,45.12 235.659997,44.68 L235.659997,36.92 C235.659997,36.48 235.899997,36.24 236.339997,36.24 L239.719997,36.24 C240.159997,36.24 240.399997,36.48 240.399997,36.92 L240.399997,44.68 Z M267.479996,36.28 L267.479996,33.6 L257.079996,33.6 L257.079996,36.28 L260.839996,36.28 L260.839996,48 L263.719996,48 L263.719996,36.28 L267.479996,36.28 Z M287.779995,48 L287.779995,43.02 L292.219995,33.6 L289.059995,33.6 L286.339995,39.76 L283.619995,33.6 L280.459995,33.6 L284.899995,43.02 L284.899995,48 L287.779995,48 Z" id="CULLOTY" fill="#333333"></path>
            <path d="M29.106,95.92 L29.106,106 L34.356,106 C35.532,106 36.344,105.188 36.344,104.012 L36.344,97.908 C36.344,96.732 35.532,95.92 34.356,95.92 L29.106,95.92 Z M31.122,104.096 L31.122,97.824 L33.852,97.824 C34.16,97.824 34.328,97.992 34.328,98.3 L34.328,103.62 C34.328,103.928 34.16,104.096 33.852,104.096 L31.122,104.096 Z M46.9279997,95.92 L46.9279997,106 L53.5219997,106 L53.5219997,104.096 L48.9439997,104.096 L48.9439997,101.8 L52.6539997,101.8 L52.6539997,99.896 L48.9439997,99.896 L48.9439997,97.824 L53.5219997,97.824 L53.5219997,95.92 L46.9279997,95.92 Z M68.5019993,99.028 L70.4619993,99.028 L70.4619993,97.852 C70.4619993,96.676 69.6499993,95.864 68.4739993,95.864 L65.5059993,95.864 C64.3299993,95.864 63.5179993,96.676 63.5179993,97.852 L63.5179993,99.56 C63.5179993,100.68 64.4419993,101.338 65.5339993,101.576 L68.1379993,102.136 C68.4459993,102.206 68.6139993,102.304 68.6139993,102.612 L68.6139993,103.676 C68.6139993,103.984 68.4459993,104.152 68.1379993,104.152 L65.9539993,104.152 C65.6459993,104.152 65.4779993,103.984 65.4779993,103.676 L65.4779993,102.78 L63.5179993,102.78 L63.5179993,104.068 C63.5179993,105.244 64.3299993,106.056 65.5059993,106.056 L68.6419993,106.056 C69.8179993,106.056 70.6299993,105.244 70.6299993,104.068 L70.6299993,102.248 C70.6299993,101.128 69.7059993,100.47 68.6139993,100.232 L66.0099993,99.672 C65.7019993,99.602 65.5339993,99.504 65.5339993,99.196 L65.5339993,98.244 C65.5339993,97.936 65.7019993,97.768 66.0099993,97.768 L68.0259993,97.768 C68.3339993,97.768 68.5019993,97.936 68.5019993,98.244 L68.5019993,99.028 Z M81.157999,106 L83.173999,106 L83.173999,95.92 L81.157999,95.92 L81.157999,106 Z M99.0359986,99.168 L101.051999,99.168 L101.051999,97.852 C101.051999,96.676 100.239999,95.864 99.0639986,95.864 L95.7459986,95.864 C94.5699986,95.864 93.7579986,96.676 93.7579986,97.852 L93.7579986,104.068 C93.7579986,105.244 94.5699986,106.056 95.7459986,106.056 L99.0639986,106.056 C100.239999,106.056 101.051999,105.244 101.051999,104.068 L101.051999,100.358 L97.1879986,100.358 L97.1879986,102.178 L99.0359986,102.178 L99.0359986,103.676 C99.0359986,103.984 98.8679986,104.152 98.5599986,104.152 L96.2499986,104.152 C95.9419986,104.152 95.7739986,103.984 95.7739986,103.676 L95.7739986,98.244 C95.7739986,97.936 95.9419986,97.768 96.2499986,97.768 L98.5599986,97.768 C98.8679986,97.768 99.0359986,97.936 99.0359986,98.244 L99.0359986,99.168 Z M117.473998,95.92 L117.473998,102.794 L113.763998,95.92 L111.593998,95.92 L111.593998,106 L113.483998,106 L113.483998,99.126 L117.193998,106 L119.363998,106 L119.363998,95.92 L117.473998,95.92 Z M130.185998,95.92 L130.185998,106 L136.779998,106 L136.779998,104.096 L132.201998,104.096 L132.201998,101.8 L135.911998,101.8 L135.911998,99.896 L132.201998,99.896 L132.201998,97.824 L136.779998,97.824 L136.779998,95.92 L130.185998,95.92 Z M154.601998,106 L152.921998,102.178 C153.761998,101.94 154.293998,101.226 154.293998,100.274 L154.293998,97.908 C154.293998,96.732 153.481998,95.92 152.305998,95.92 L147.167998,95.92 L147.167998,106 L149.183998,106 L149.183998,102.262 L150.807998,102.262 L152.431998,106 L154.601998,106 Z M152.277998,99.91 C152.277998,100.218 152.109998,100.386 151.801998,100.386 L149.183998,100.386 L149.183998,97.824 L151.801998,97.824 C152.109998,97.824 152.277998,97.992 152.277998,98.3 L152.277998,99.91 Z M170.883997,94.94 L168.923997,94.94 L163.967997,106.98 L165.927997,106.98 L170.883997,94.94 Z M180.795997,95.92 L180.795997,106 L186.045997,106 C187.221997,106 188.033997,105.188 188.033997,104.012 L188.033997,97.908 C188.033997,96.732 187.221997,95.92 186.045997,95.92 L180.795997,95.92 Z M182.811997,104.096 L182.811997,97.824 L185.541997,97.824 C185.849997,97.824 186.017997,97.992 186.017997,98.3 L186.017997,103.62 C186.017997,103.928 185.849997,104.096 185.541997,104.096 L182.811997,104.096 Z M198.617997,95.92 L198.617997,106 L205.211997,106 L205.211997,104.096 L200.633997,104.096 L200.633997,101.8 L204.343997,101.8 L204.343997,99.896 L200.633997,99.896 L200.633997,97.824 L205.211997,97.824 L205.211997,95.92 L198.617997,95.92 Z M223.229996,95.92 L220.989996,95.92 L218.987996,103.578 L217.041996,95.92 L214.745996,95.92 L217.811996,106 L220.163996,106 L223.229996,95.92 Z M233.197996,95.92 L233.197996,106 L239.791996,106 L239.791996,104.096 L235.213996,104.096 L235.213996,101.8 L238.923996,101.8 L238.923996,99.896 L235.213996,99.896 L235.213996,97.824 L239.791996,97.824 L239.791996,95.92 L233.197996,95.92 Z M250.179996,95.92 L250.179996,106 L256.423996,106 L256.423996,104.096 L252.195996,104.096 L252.195996,95.92 L250.179996,95.92 Z M268.085995,95.864 C266.909995,95.864 266.097995,96.676 266.097995,97.852 L266.097995,104.068 C266.097995,105.244 266.909995,106.056 268.085995,106.056 L271.459995,106.056 C272.635995,106.056 273.447995,105.244 273.447995,104.068 L273.447995,97.852 C273.447995,96.676 272.635995,95.864 271.459995,95.864 L268.085995,95.864 Z M271.431995,103.676 C271.431995,103.984 271.263995,104.152 270.955995,104.152 L268.589995,104.152 C268.281995,104.152 268.113995,103.984 268.113995,103.676 L268.113995,98.244 C268.113995,97.936 268.281995,97.768 268.589995,97.768 L270.955995,97.768 C271.263995,97.768 271.431995,97.936 271.431995,98.244 L271.431995,103.676 Z M284.031995,95.92 L284.031995,106 L286.047995,106 L286.047995,102.444 L289.183995,102.444 C290.359995,102.444 291.171995,101.632 291.171995,100.456 L291.171995,97.908 C291.171995,96.732 290.359995,95.92 289.183995,95.92 L284.031995,95.92 Z M286.047995,100.54 L286.047995,97.824 L288.679995,97.824 C288.987995,97.824 289.155995,97.992 289.155995,98.3 L289.155995,100.064 C289.155995,100.372 288.987995,100.54 288.679995,100.54 L286.047995,100.54 Z M301.405995,95.92 L301.405995,106 L307.999995,106 L307.999995,104.096 L303.421995,104.096 L303.421995,101.8 L307.131995,101.8 L307.131995,99.896 L303.421995,99.896 L303.421995,97.824 L307.999995,97.824 L307.999995,95.92 L301.405995,95.92 Z M325.821994,106 L324.141994,102.178 C324.981994,101.94 325.513994,101.226 325.513994,100.274 L325.513994,97.908 C325.513994,96.732 324.701994,95.92 323.525994,95.92 L318.387994,95.92 L318.387994,106 L320.403994,106 L320.403994,102.262 L322.027994,102.262 L323.651994,106 L325.821994,106 Z M323.497994,99.91 C323.497994,100.218 323.329994,100.386 323.021994,100.386 L320.403994,100.386 L320.403994,97.824 L323.021994,97.824 C323.329994,97.824 323.497994,97.992 323.497994,98.3 L323.497994,99.91 Z" id="Designer/Developer" fill="#333333"></path>
        </g>
    </g>
</svg>