<?xml version="1.0" encoding="UTF-8" standalone="no"?>
<svg width="80px" height="67px" viewBox="0 0 80 67" version="1.1" xmlns="http://www.w3.org/2000/svg" xmlns:xlink="http://www.w3.org/1999/xlink">
    <!-- Generator: Sketch 40 (33762) - http://www.bohemiancoding.com/sketch -->
    <title>responsive</title>
    <desc>Created with Sketch.</desc>
    <defs></defs>
    <g id="Page-1" stroke="none" stroke-width="1" fill="none" fill-rule="evenodd">
        <g id="responsive" fill="#333333">
            <g id="Layer_1">
                <g id="Group">
                    <path d="M38.125,45.78125 L4.0625,45.78125 C3.2009375,45.78125 2.5,45.0803125 2.5,44.21875 L2.5,4.21875 C2.5,3.3571875 3.2009375,2.65625 4.0625,2.65625 L65.9375,2.65625 C66.7990625,2.65625 67.5,3.3571875 67.5,4.21875 L67.5,31.71875 C67.5,32.4090625 68.0596875,32.96875 68.75,32.96875 C69.4403125,32.96875 70,32.4090625 70,31.71875 L70,4.21875 C70,1.97875 68.1775,0.15625 65.9375,0.15625 L4.0625,0.15625 C1.8225,0.15625 0,1.97875 0,4.21875 L0,44.21875 C0,46.45875 1.8225,48.28125 4.0625,48.28125 L38.125,48.28125 C38.8153125,48.28125 39.375,47.7215625 39.375,47.03125 C39.375,46.3409375 38.8153125,45.78125 38.125,45.78125 L38.125,45.78125 Z" id="Shape"></path>
                    <path d="M63.75,29.21875 C64.4403125,29.21875 65,28.6590625 65,27.96875 L65,6.40625 C65,5.7159375 64.4403125,5.15625 63.75,5.15625 L11.25,5.15625 C10.5596875,5.15625 10,5.7159375 10,6.40625 L10,42.03125 C10,42.7215625 10.5596875,43.28125 11.25,43.28125 L33.4375,43.28125 C34.1278125,43.28125 34.6875,42.7215625 34.6875,42.03125 C34.6875,41.3409375 34.1278125,40.78125 33.4375,40.78125 L12.5,40.78125 L12.5,7.65625 L62.5,7.65625 L62.5,27.96875 C62.5,28.6590625 63.0596875,29.21875 63.75,29.21875 L63.75,29.21875 Z" id="Shape"></path>
                    <circle id="Oval" cx="6.25" cy="22.65625" r="1.25"></circle>
                    <path d="M77.9509375,46.2078125 L64.3065625,32.5634375 C62.7228125,30.979375 60.145625,30.98 58.5615625,32.5634375 C58.17,32.955 57.87625,33.4071875 57.678125,33.89 L57.4565625,33.6684375 C55.8728125,32.0846875 53.2953125,32.0846875 51.71125,33.6684375 C51.3259375,34.05375 51.03625,34.4984375 50.8384375,34.9725 L44.1225,28.22125 C42.53875,26.6375 39.96125,26.6375 38.3771875,28.22125 C36.793125,29.8053125 36.793125,32.3825 38.36625,33.955625 L38.5003125,34.093125 C38,34.2909375 37.5309375,34.590625 37.1271875,34.994375 C36.9003125,35.22125 36.7075,35.4725 36.5428125,35.73875 C30.61375,35.25 25.9375,30.271875 25.9375,24.21875 C25.9375,17.843125 31.124375,12.65625 37.5,12.65625 C43.1928125,12.65625 47.9340625,16.7925 48.8853125,22.2165625 L45.1953125,20.5765625 C44.56375,20.29625 43.8253125,20.5803125 43.5453125,21.21125 C43.265,21.8421875 43.5490625,22.580625 44.1796875,22.86125 L49.8046875,25.36125 C49.9684375,25.4340625 50.14125,25.4690625 50.311875,25.4690625 C50.6959375,25.4690625 51.070625,25.291875 51.3125,24.96875 L55.0625,19.96875 C55.4765625,19.4165625 55.3646875,18.633125 54.8125,18.21875 C54.2603125,17.8046875 53.476875,17.9165625 53.0621875,18.46875 L51.1809375,20.9771875 C49.713125,14.78125 44.1384375,10.15625 37.5,10.15625 C29.7459375,10.15625 23.4375,16.4646875 23.4375,24.21875 C23.4375,31.45 28.9246875,37.4215625 35.9534375,38.194375 C36.0296875,39.1559375 36.4378125,40.05 37.1275,40.7396875 L48.00625,51.6184375 C46.4228125,51.139375 44.711875,50.7815625 43.125,50.7815625 C42.17,50.7815625 41.329375,51.12875 40.6934375,51.785625 C39.331875,53.191875 39.3671875,55.5565625 39.375625,55.821875 C39.3903125,56.2728125 39.646875,56.68125 40.046875,56.89 C40.10125,56.9184375 45.6134375,59.791875 55.8921875,65.033125 C57.744375,65.9775 59.305,66.0940625 60.3125,66.0940625 L66.8734375,66.0940625 L66.875,66.0940625 C67.206875,66.0940625 67.5253125,65.961875 67.76,65.726875 L77.95375,55.509375 C78.24,55.2403125 80,53.47625 80,50.7815625 C80,48.2225 78.239375,46.4765625 77.9509375,46.2078125 L77.9509375,46.2078125 Z M76.2534375,53.676875 C76.235,53.693125 76.2178125,53.7096875 76.2003125,53.726875 L66.3571875,63.59375 L60.3125,63.59375 C59.499375,63.59375 58.385,63.4975 57.028125,62.805625 C48.8684375,58.645 43.7175,55.97875 41.919375,55.0453125 C41.9925,54.506875 42.1621875,53.861875 42.4890625,53.524375 C42.6053125,53.4040625 42.771875,53.28125 43.1246875,53.28125 C47.2078125,53.28125 52.68,56.2459375 52.7346875,56.2759375 C52.7353125,56.2740625 52.7359375,56.2725 52.7365625,56.270625 C52.9228125,56.3728125 53.1278125,56.429375 53.3346875,56.429375 C53.654375,56.429375 53.9746875,56.3071875 54.2184375,56.0634375 C54.7065625,55.5753125 54.7065625,54.78375 54.2184375,54.295625 L38.8946875,38.971875 C38.285625,38.3628125 38.285625,37.37125 38.8946875,36.7621875 C39.1896875,36.4671875 39.5821875,36.3046875 39.9996875,36.3046875 C40.4171875,36.3046875 40.8096875,36.4671875 41.1046875,36.7621875 L51.2690625,46.926875 C51.7571875,47.415 52.5490625,47.415 53.0365625,46.926875 C53.5246875,46.43875 53.5246875,45.6471875 53.0365625,45.1590625 L42.883125,35.0053125 L40.144375,32.19875 C39.5353125,31.5896875 39.5353125,30.5984375 40.144375,29.989375 C40.754375,29.38 41.745625,29.38 42.351875,29.986875 L55.2440625,42.9471875 C55.4884375,43.1928125 55.809375,43.315625 56.1303125,43.315625 C56.449375,43.315625 56.768125,43.194375 57.011875,42.951875 C57.5009375,42.465 57.503125,41.6734375 57.0165625,41.1840625 L53.391875,37.5403125 C52.8778125,36.9271875 52.901875,36.0128125 53.478125,35.4365625 C54.0878125,34.8271875 55.0784375,34.8271875 55.688125,35.4365625 L60.770625,40.5190625 C61.014375,40.763125 61.3346875,40.885 61.654375,40.885 C61.9740625,40.885 62.294375,40.7628125 62.538125,40.5190625 C63.02625,40.0309375 63.02625,39.239375 62.538125,38.75125 L60.3284375,36.5415625 C59.719375,35.9325 59.719375,34.9409375 60.3284375,34.331875 C60.9375,33.7221875 61.9290625,33.7228125 62.538125,34.331875 L76.200625,47.9940625 C76.2184375,48.011875 76.2365625,48.0290625 76.255625,48.045625 C76.2678125,48.056875 77.4990625,49.1921875 77.4990625,50.7815625 C77.5,52.5084375 76.2584375,53.671875 76.2534375,53.676875 L76.2534375,53.676875 Z" id="Shape"></path>
                </g>
            </g>
        </g>
    </g>
</svg>