<?xml version="1.0" encoding="UTF-8" standalone="no"?>
<svg width="80px" height="80px" viewBox="0 0 80 80" version="1.1" xmlns="http://www.w3.org/2000/svg" xmlns:xlink="http://www.w3.org/1999/xlink">
    <!-- Generator: Sketch 40 (33762) - http://www.bohemiancoding.com/sketch -->
    <title>UX</title>
    <desc>Created with Sketch.</desc>
    <defs></defs>
    <g id="Page-1" stroke="none" stroke-width="1" fill="none" fill-rule="evenodd">
        <g id="UX" fill="#333333">
            <g id="Layer_1">
                <g id="Group">
                    <path d="M35,33.75 L52.5,33.75 C53.1903125,33.75 53.75,33.1903125 53.75,32.5 L53.75,25 C53.75,24.3096875 53.1903125,23.75 52.5,23.75 L35,23.75 C34.3096875,23.75 33.75,24.3096875 33.75,25 L33.75,32.5 C33.75,33.1903125 34.3096875,33.75 35,33.75 L35,33.75 Z M36.25,26.25 L51.25,26.25 L51.25,31.25 L36.25,31.25 L36.25,26.25 L36.25,26.25 Z" id="Shape"></path>
                    <path d="M38.75,10 L48.75,10 C51.506875,10 53.75,7.756875 53.75,5 C53.75,2.243125 51.506875,0 48.75,0 L38.75,0 C35.993125,0 33.75,2.243125 33.75,5 C33.75,7.756875 35.993125,10 38.75,10 L38.75,10 Z M38.75,2.5 L48.75,2.5 C50.1284375,2.5 51.25,3.6215625 51.25,5 C51.25,6.3784375 50.1284375,7.5 48.75,7.5 L38.75,7.5 C37.3715625,7.5 36.25,6.3784375 36.25,5 C36.25,3.6215625 37.3715625,2.5 38.75,2.5 L38.75,2.5 Z" id="Shape"></path>
                    <path d="M42.13375,17.8659375 C41.6459375,17.3778125 40.85375,17.3778125 40.36625,17.8659375 C39.878125,18.3540625 39.878125,19.145625 40.36625,19.63375 L42.86625,22.13375 C43.11,22.3778125 43.4303125,22.5 43.75,22.5 C44.0696875,22.5 44.39,22.3778125 44.63375,22.1340625 L47.13375,19.6340625 C47.621875,19.1459375 47.621875,18.354375 47.13375,17.86625 C46.6459375,17.378125 45.85375,17.378125 45.36625,17.86625 L45,18.2321875 L45,16.08125 C45.7465625,15.865 46.25,15.4621875 46.25,15 C46.25,14.5378125 45.7465625,14.1346875 45,13.91875 L45,12.5 C45,11.8096875 44.4403125,11.25 43.75,11.25 C43.0596875,11.25 42.5,11.8096875 42.5,12.5 L42.5,13.91875 C41.7534375,14.135 41.25,14.5378125 41.25,15 C41.25,15.4621875 41.7534375,15.8653125 42.5,16.08125 L42.5,18.2321875 L42.13375,17.8659375 L42.13375,17.8659375 Z" id="Shape"></path>
                    <path d="M26.25,53.75 L8.75,53.75 C8.0596875,53.75 7.5,54.3096875 7.5,55 L7.5,62.5 C7.5,63.1903125 8.0596875,63.75 8.75,63.75 L26.25,63.75 C26.9403125,63.75 27.5,63.1903125 27.5,62.5 L27.5,55 C27.5,54.3096875 26.9403125,53.75 26.25,53.75 L26.25,53.75 Z M25,61.25 L10,61.25 L10,56.25 L25,56.25 L25,61.25 L25,61.25 Z" id="Shape"></path>
                    <path d="M29.63375,25.3659375 C29.1459375,24.8778125 28.35375,24.8778125 27.86625,25.3659375 C27.378125,25.8540625 27.378125,26.645625 27.86625,27.13375 L28.2321875,27.5 L1.25,27.5 C0.5596875,27.5 0,28.0596875 0,28.75 L0,58.75 C0,59.4403125 0.5596875,60 1.25,60 L5,60 C5.6903125,60 6.25,59.4403125 6.25,58.75 C6.25,58.0596875 5.6903125,57.5 5,57.5 L2.5,57.5 L2.5,30 L28.2321875,30 L27.86625,30.3659375 C27.378125,30.8540625 27.378125,31.645625 27.86625,32.13375 C28.11,32.3778125 28.4303125,32.5 28.75,32.5 C29.0696875,32.5 29.39,32.3778125 29.63375,32.1340625 L32.13375,29.6340625 C32.621875,29.1459375 32.621875,28.354375 32.13375,27.86625 L29.63375,25.3659375 L29.63375,25.3659375 Z" id="Shape"></path>
                    <path d="M31.25,43.75 L17.5,43.75 C16.8096875,43.75 16.25,44.3096875 16.25,45 L16.25,48.2321875 L15.88375,47.8659375 C15.3959375,47.3778125 14.60375,47.3778125 14.11625,47.8659375 C13.628125,48.3540625 13.628125,49.145625 14.11625,49.63375 L16.61625,52.13375 C16.86,52.3778125 17.1803125,52.5 17.5,52.5 C17.8196875,52.5 18.14,52.3778125 18.38375,52.1340625 L20.88375,49.6340625 C21.371875,49.1459375 21.371875,48.354375 20.88375,47.86625 C20.3959375,47.378125 19.60375,47.378125 19.11625,47.86625 L18.75,48.2321875 L18.75,46.25 L31.25,46.25 C31.9403125,46.25 32.5,45.6903125 32.5,45 C32.5,44.3096875 31.9403125,43.75 31.25,43.75 L31.25,43.75 Z" id="Shape"></path>
                    <path d="M48.75,70 L38.75,70 C35.993125,70 33.75,72.243125 33.75,75 C33.75,77.756875 35.993125,80 38.75,80 L48.75,80 C51.506875,80 53.75,77.756875 53.75,75 C53.75,72.243125 51.506875,70 48.75,70 L48.75,70 Z M48.75,77.5 L38.75,77.5 C37.3715625,77.5 36.25,76.3784375 36.25,75 C36.25,73.6215625 37.3715625,72.5 38.75,72.5 L48.75,72.5 C50.1284375,72.5 51.25,73.6215625 51.25,75 C51.25,76.3784375 50.1284375,77.5 48.75,77.5 L48.75,77.5 Z" id="Shape"></path>
                    <path d="M78.75,53.75 L61.25,53.75 C60.5596875,53.75 60,54.3096875 60,55 L60,62.5 C60,63.1903125 60.5596875,63.75 61.25,63.75 L78.75,63.75 C79.4403125,63.75 80,63.1903125 80,62.5 L80,55 C80,54.3096875 79.4403125,53.75 78.75,53.75 L78.75,53.75 Z M77.5,61.25 L62.5,61.25 L62.5,56.25 L77.5,56.25 L77.5,61.25 L77.5,61.25 Z" id="Shape"></path>
                    <path d="M57.5,57.5 L56.08125,57.5 C55.865,56.7534375 55.4621875,56.25 55,56.25 C54.5378125,56.25 54.1346875,56.7534375 53.91875,57.5 L51.7678125,57.5 L52.13375,57.1340625 C52.621875,56.6459375 52.621875,55.854375 52.13375,55.36625 C51.6459375,54.878125 50.85375,54.878125 50.36625,55.36625 L47.86625,57.86625 C47.378125,58.354375 47.378125,59.1459375 47.86625,59.6340625 L50.36625,62.1340625 C50.61,62.378125 50.9303125,62.5 51.25,62.5 C51.5696875,62.5 51.89,62.3778125 52.13375,62.1340625 C52.621875,61.6459375 52.621875,60.854375 52.13375,60.36625 L51.7678125,60 L53.91875,60 C54.135,60.7465625 54.5378125,61.25 55,61.25 C55.4621875,61.25 55.8653125,60.7465625 56.08125,60 L57.5,60 C58.1903125,60 58.75,59.4403125 58.75,58.75 C58.75,58.0596875 58.1903125,57.5 57.5,57.5 L57.5,57.5 Z" id="Shape"></path>
                    <path d="M37.5,48.75 L42.5,48.75 L42.5,57.66875 C41.7534375,57.885 41.25,58.2878125 41.25,58.75 C41.25,59.2121875 41.7534375,59.6153125 42.5,59.83125 L42.5,64.4821875 L42.13375,64.1159375 C41.6459375,63.6278125 40.85375,63.6278125 40.36625,64.1159375 C39.878125,64.6040625 39.878125,65.395625 40.36625,65.88375 L42.86625,68.38375 C43.11,68.6278125 43.4303125,68.7496875 43.75,68.7496875 C44.0696875,68.7496875 44.39,68.6275 44.63375,68.38375 L47.13375,65.88375 C47.621875,65.395625 47.621875,64.6040625 47.13375,64.1159375 C46.6459375,63.6278125 45.85375,63.6278125 45.36625,64.1159375 L45,64.4821875 L45,59.83125 C45.7465625,59.615 46.25,59.2121875 46.25,58.75 C46.25,58.2878125 45.7465625,57.8846875 45,57.66875 L45,48.75 L50,48.75 C52.0678125,48.75 53.75,47.0678125 53.75,45 C53.75,42.9321875 52.0678125,41.25 50,41.25 L45,41.25 L45,39.83125 C45.7465625,39.615 46.25,39.2121875 46.25,38.75 C46.25,38.2878125 45.7465625,37.8846875 45,37.66875 L45,36.25 C45,35.5596875 44.4403125,35 43.75,35 C43.0596875,35 42.5,35.5596875 42.5,36.25 L42.5,37.66875 C41.7534375,37.885 41.25,38.2878125 41.25,38.75 C41.25,39.2121875 41.7534375,39.6153125 42.5,39.83125 L42.5,41.25 L37.5,41.25 C35.4321875,41.25 33.75,42.9321875 33.75,45 C33.75,47.0678125 35.4321875,48.75 37.5,48.75 L37.5,48.75 Z M37.5,43.75 L50,43.75 C50.689375,43.75 51.25,44.310625 51.25,45 C51.25,45.689375 50.689375,46.25 50,46.25 L37.5,46.25 C36.810625,46.25 36.25,45.689375 36.25,45 C36.25,44.310625 36.810625,43.75 37.5,43.75 L37.5,43.75 Z" id="Shape"></path>
                    <path d="M56.25,46.25 L68.75,46.25 L68.75,48.2321875 L68.38375,47.8659375 C67.8959375,47.3778125 67.10375,47.3778125 66.61625,47.8659375 C66.128125,48.3540625 66.128125,49.145625 66.61625,49.63375 L69.11625,52.13375 C69.36,52.3778125 69.6803125,52.4996875 70,52.4996875 C70.3196875,52.4996875 70.64,52.3775 70.88375,52.13375 L73.38375,49.63375 C73.871875,49.145625 73.871875,48.3540625 73.38375,47.8659375 C72.8959375,47.3778125 72.10375,47.3778125 71.61625,47.8659375 L71.25,48.2321875 L71.25,45 C71.25,44.3096875 70.6903125,43.75 70,43.75 L56.25,43.75 C55.5596875,43.75 55,44.3096875 55,45 C55,45.6903125 55.5596875,46.25 56.25,46.25 L56.25,46.25 Z" id="Shape"></path>
                </g>
            </g>
        </g>
    </g>
</svg>