<?xml version="1.0" encoding="UTF-8" standalone="no"?>
<svg width="80px" height="80px" viewBox="0 0 80 80" version="1.1" xmlns="http://www.w3.org/2000/svg" xmlns:xlink="http://www.w3.org/1999/xlink">
    <!-- Generator: Sketch 40 (33762) - http://www.bohemiancoding.com/sketch -->
    <title>wireframe</title>
    <desc>Created with Sketch.</desc>
    <defs></defs>
    <g id="Page-1" stroke="none" stroke-width="1" fill="none" fill-rule="evenodd">
        <g id="wireframe" fill="#333333">
            <g id="Layer_1">
                <g id="Group">
                    <path d="M66.25,45 C65.5596875,45 65,45.5596875 65,46.25 L65,77.5 L2.5,77.5 L2.5,2.5 L65,2.5 L65,11.875 C65,12.5653125 65.5596875,13.125 66.25,13.125 C66.9403125,13.125 67.5,12.5653125 67.5,11.875 L67.5,1.25 C67.5,0.5596875 66.9403125,0 66.25,0 L1.25,0 C0.5596875,0 0,0.5596875 0,1.25 L0,78.75 C0,79.4403125 0.5596875,80 1.25,80 L66.25,80 C66.9403125,80 67.5,79.4403125 67.5,78.75 L67.5,46.25 C67.5,45.5596875 66.9403125,45 66.25,45 L66.25,45 Z" id="Shape"></path>
                    <path d="M58.75,20 C59.4403125,20 60,19.4403125 60,18.75 L60,8.75 C60,8.0596875 59.4403125,7.5 58.75,7.5 L8.75,7.5 C8.0596875,7.5 7.5,8.0596875 7.5,8.75 L7.5,31.25 C7.5,31.9403125 8.0596875,32.5 8.75,32.5 L46.25,32.5 C46.9403125,32.5 47.5,31.9403125 47.5,31.25 C47.5,30.5596875 46.9403125,30 46.25,30 L10,30 L10,10 L57.5,10 L57.5,18.75 C57.5,19.4403125 58.0596875,20 58.75,20 L58.75,20 Z" id="Shape"></path>
                    <path d="M41.25,37.5 C41.9403125,37.5 42.5,36.9403125 42.5,36.25 C42.5,35.5596875 41.9403125,35 41.25,35 L8.75,35 C8.0596875,35 7.5,35.5596875 7.5,36.25 L7.5,56.25 C7.5,56.9403125 8.0596875,57.5 8.75,57.5 L26.25,57.5 C26.9403125,57.5 27.5,56.9403125 27.5,56.25 C27.5,55.5596875 26.9403125,55 26.25,55 L10,55 L10,37.5 L41.25,37.5 L41.25,37.5 Z" id="Shape"></path>
                    <path d="M58.75,52.5 C58.0596875,52.5 57.5,53.0596875 57.5,53.75 L57.5,55 L56.25,55 C55.5596875,55 55,55.5596875 55,56.25 C55,56.9403125 55.5596875,57.5 56.25,57.5 L58.75,57.5 C59.4403125,57.5 60,56.9403125 60,56.25 L60,53.75 C60,53.0596875 59.4403125,52.5 58.75,52.5 L58.75,52.5 Z" id="Shape"></path>
                    <path d="M8.75,60 C8.0596875,60 7.5,60.5596875 7.5,61.25 C7.5,61.9403125 8.0596875,62.5 8.75,62.5 L25,62.5 C25.6903125,62.5 26.25,61.9403125 26.25,61.25 C26.25,60.5596875 25.6903125,60 25,60 L8.75,60 L8.75,60 Z" id="Shape"></path>
                    <path d="M79.63375,25.9909375 L69.00875,15.3659375 C68.5209375,14.8778125 67.72875,14.8778125 67.24125,15.3659375 L31.30375,51.3034375 C31.141875,51.4653125 31.0275,51.668125 30.973125,51.890625 L27.535625,65.953125 C27.431875,66.3771875 27.5571875,66.825 27.86625,67.13375 C28.1034375,67.3709375 28.4225,67.5 28.75,67.5 L58.75,67.5 C59.4403125,67.5 60,66.9403125 60,66.25 L60,61.25 C60,60.5596875 59.4403125,60 58.75,60 L51.25,60 C50.5596875,60 50,60.5596875 50,61.25 C50,61.9403125 50.5596875,62.5 51.25,62.5 L57.5,62.5 L57.5,65 L39.128125,65 L43.109375,64.026875 C43.3315625,63.9725 43.534375,63.858125 43.69625,63.6965625 L79.63375,27.7590625 C80.1221875,27.270625 80.1221875,26.479375 79.63375,25.9909375 L79.63375,25.9909375 Z M68.125,18.0178125 L71.67,21.5628125 L39.6840625,53.565 C39.460625,52.725 39.0240625,51.953125 38.3928125,51.3221875 C37.74125,50.670625 36.9525,50.2396875 36.119375,50.02375 L68.125,18.0178125 L68.125,18.0178125 Z M30.453125,64.546875 L31.1125,61.85 C31.543125,62.079375 31.9396875,62.36875 32.285625,62.7146875 C32.6315625,63.060625 32.9209375,63.4571875 33.1503125,63.8878125 L30.453125,64.546875 L30.453125,64.546875 Z M42.135,61.69125 L35.6284375,63.2815625 C35.2553125,62.411875 34.724375,61.6175 34.0534375,60.94625 C33.3828125,60.275625 32.588125,59.7446875 31.7184375,59.37125 L33.299375,52.9034375 C34.28,52.1203125 35.7178125,52.181875 36.625625,53.089375 C37.0978125,53.5615625 37.3578125,54.189375 37.3578125,54.856875 C37.3578125,55.5246875 37.0978125,56.1525 36.625625,56.6246875 L36.6253125,56.625 C36.1371875,57.113125 36.1371875,57.9046875 36.625625,58.3928125 C36.8696875,58.636875 37.1896875,58.75875 37.509375,58.75875 C37.829375,58.75875 38.1490625,58.636875 38.393125,58.3928125 C39.3678125,57.418125 40.9540625,57.418125 41.92875,58.3928125 C42.828125,59.2925 42.895625,60.7115625 42.135,61.69125 L42.135,61.69125 Z M44.9871875,58.87 C44.76875,58.0471875 44.3403125,57.269375 43.69625,56.6253125 C43.0515625,55.980625 42.27125,55.5553125 41.4475,55.336875 L73.4375,23.330625 L76.9821875,26.875 L44.9871875,58.87 L44.9871875,58.87 Z" id="Shape"></path>
                </g>
            </g>
        </g>
    </g>
</svg>